<svg xmlns="http://www.w3.org/2000/svg" width="500" height="500"><g style="pointer-events:all" opacity="1"><title style="pointer-events:inherit">front</title><rect fill="#fcc4df" stroke="#960048" stroke-width="0" stroke-dasharray="null" stroke-linejoin="null" stroke-linecap="null" x="0" y="0" width="500" height="500" id="svg_30" fill-opacity="1" stroke-opacity="1" transform=""></rect></g><g style="pointer-events:none" opacity="1"><title style="pointer-events:inherit">heart</title><defs style="pointer-events:inherit"><linearGradient id="svg_1" x2="1" y2="1" x1="0.82293701171875" y1="0.83203125" spreadMethod="repeat" style="pointer-events:inherit"><stop stop-color="#ff56aa" stop-opacity="0.99609375" offset="0.48309326171875" style="pointer-events:inherit"></stop><stop stop-color="#ff007f" stop-opacity="0.99609375" offset="0.48699951171875" style="pointer-events:inherit"></stop></linearGradient><linearGradient id="svg_7" x1="0" y1="1" x2="0.15106201171875" y2="0.87109375" spreadMethod="repeat" style="pointer-events:inherit"><stop stop-color="#7f0000" stop-opacity="0.99609375" offset="0.54168701171875" style="pointer-events:inherit"></stop><stop stop-color="#ae1a00" stop-opacity="0.9921875" offset="0.54559326171875" style="pointer-events:inherit"></stop></linearGradient><linearGradient id="svg_10" x2="0.98699951171875" y2="1" x1="0.92840576171875" y1="0.9375" spreadMethod="repeat" style="pointer-events:inherit"><stop stop-color="#af1c02" stop-opacity="0.99609375" offset="0.55731201171875" style="pointer-events:inherit"></stop><stop stop-color="#800101" stop-opacity="0.99609375" offset="0.55731201171875" style="pointer-events:inherit"></stop></linearGradient><linearGradient id="svg_11" x2="0" y2="1" x1="0.11981201171875" y1="0.890625" spreadMethod="repeat" style="pointer-events:inherit"><stop stop-color="#af1c02" stop-opacity="0.99609375" offset="0.44012451171875" style="pointer-events:inherit"></stop><stop stop-color="#800101" stop-opacity="0.99609375" offset="0.45574951171875" style="pointer-events:inherit"></stop></linearGradient></defs><g stroke="" fill-opacity="1" id="svg_2" stroke-opacity="1" transform="" style="pointer-events:inherit"><path d="M 241.116 391.133 C 233.784 381.934 215.476 363.999 200.431 351.279 C 155.855 313.589 149.789 308.134 131.69 289.475 C 98.324 255.076 84.1538 220.516 84.2023 173.655 C 84.226 150.78 85.6186 141.967 91.3402 128.483 C 101.047 105.606 115.346 88.607 133.628 78.2102 C 146.576 70.8466 152.962 67.5751 174.584 67.4412 C 197.203 67.3013 201.964 70.254 215.269 78.4379 C 231.464 88.399 248.132 109.688 251.578 124.81 L 253.706 134.151 L 258.954 121.287 C 288.611 48.5952 383.295 49.6828 416.246 123.094 C 426.699 146.382 427.846 196.107 418.577 224.118 C 406.486 260.656 383.776 288.512 331.279 331.199 C 296.851 359.193 257.885 401.55 255.173 407.499 C 252.024 414.405 255.023 408.581 241.116 391.133 Z" fill="#960048" id="svg_3" transform="" style="pointer-events:inherit"></path><g stroke="" id="svg_4" transform="" style="pointer-events:inherit"></g></g><g id="layer1" stroke="" fill-opacity="1" stroke-opacity="1" transform="" style="pointer-events:inherit"><path d="M 227.376 390.645 C 220.044 381.446 201.735 363.511 186.691 350.79 C 142.115 313.1 136.048 307.646 117.95 288.987 C 84.5836 254.588 70.4136 220.028 70.4622 173.167 C 70.4859 150.292 71.8785 141.478 77.6001 127.994 C 87.3072 105.118 101.606 88.1188 119.888 77.722 C 132.836 70.3584 139.222 67.0869 160.844 66.953 C 183.463 66.813 188.224 69.7658 201.529 77.9497 C 217.724 87.9108 234.392 109.2 237.838 124.322 L 239.966 133.662 L 245.214 120.799 C 274.871 48.107 369.555 49.1946 402.506 122.605 C 412.958 145.893 414.106 195.619 404.837 223.629 C 392.746 260.168 370.036 288.024 317.539 330.71 C 283.11 358.705 244.145 401.062 241.432 407.011 C 238.284 413.917 241.282 408.093 227.376 390.645 Z" id="path2417" fill="url(#svg_1)" stroke="#960048" fill-opacity="1" stroke-opacity="1" stroke-width="0" transform="" style="pointer-events:inherit"></path><g id="g2221" stroke="" transform="" style="pointer-events:inherit"></g></g><text fill="#fcc4df" stroke-width="0" stroke-dasharray="null" stroke-linejoin="null" stroke-linecap="null" x="138.17948733197477" y="178.72" id="svg_28" font-size="29" font-family="Cursive" text-anchor="middle" xml:space="preserve" fill-opacity="1" stroke-opacity="1" transform="matrix(2.56579 0 0 3.125 -108.039 -314.5)" stroke="#960048" style="pointer-events:inherit">LOVE</text></g></svg>