<?xml version="1.0" encoding="utf-8"?>
<!-- Generator: Adobe Illustrator 15.0.0, SVG Export Plug-In  -->
<!DOCTYPE svg PUBLIC "-//W3C//DTD SVG 1.1//EN" "http://www.w3.org/Graphics/SVG/1.1/DTD/svg11.dtd" [
	<!ENTITY ns_flows "http://ns.adobe.com/Flows/1.0/">
]>
<svg version="1.1"
	 xmlns="http://www.w3.org/2000/svg" xmlns:xlink="http://www.w3.org/1999/xlink" xmlns:a="http://ns.adobe.com/AdobeSVGViewerExtensions/3.0/"
	 x="0px" y="0px" width="50px" height="50px" viewBox="0 -0.067 50 50" enable-background="new 0 -0.067 50 50"
	 xml:space="preserve">
<defs>
</defs>
<path fill="#F9B40B" d="M19.394,1.16c0.268,0.876-0.194,1.814-1.033,2.095s-1.736-0.203-2.005-1.081
	C16.088,1.298,16.55,0.36,17.389,0.08C18.229-0.201,19.125,0.283,19.394,1.16z"/>
<path opacity="0.86" fill="#DA2719" d="M33.862,2.265c-0.276,0.874-1.179,1.348-2.015,1.06c-0.837-0.289-1.292-1.232-1.014-2.106
	c0.275-0.875,1.178-1.349,2.015-1.06C33.685,0.447,34.139,1.39,33.862,2.265z"/>
<path fill="#09ADDD" d="M44.944,12.05c-0.716,0.537-1.711,0.367-2.227-0.381c-0.514-0.748-0.351-1.789,0.365-2.327
	c0.715-0.537,1.712-0.366,2.226,0.381C45.822,10.471,45.659,11.514,44.944,12.05z"/>
<ellipse transform="matrix(-0.0056 1 -1 -0.0056 73.7888 -23.161)" fill="#F9B40B" cx="48.411" cy="25.109" rx="1.667" ry="1.595"/>
<path opacity="0.86" fill="#DA2719" d="M42.913,40.814c-0.709-0.547-0.862-1.589-0.339-2.331c0.522-0.742,1.52-0.9,2.229-0.356
	c0.71,0.546,0.861,1.59,0.34,2.332C44.622,41.2,43.623,41.358,42.913,40.814z"/>
<path fill="#5AB146" d="M30.577,48.793c-0.266-0.878,0.198-1.814,1.038-2.095c0.838-0.278,1.735,0.206,2.003,1.084
	c0.265,0.877-0.197,1.814-1.037,2.094C31.742,50.156,30.845,49.67,30.577,48.793z"/>
<path fill="#09ADDD" d="M16.111,47.666c0.278-0.873,1.18-1.346,2.016-1.056c0.836,0.29,1.289,1.233,1.011,2.107
	s-1.18,1.348-2.016,1.056C16.286,49.484,15.834,48.541,16.111,47.666z"/>
<path fill="#F9B40B" d="M5.043,37.864c0.716-0.536,1.712-0.364,2.225,0.384c0.514,0.748,0.349,1.791-0.367,2.326
	c-0.716,0.536-1.713,0.363-2.226-0.384C4.163,39.441,4.327,38.4,5.043,37.864z"/>
<ellipse transform="matrix(0.0066 -1 1 0.0066 -23.2133 26.2298)" opacity="0.86" fill="#DA2719" cx="1.595" cy="24.798" rx="1.667" ry="1.594"/>
<path fill="#5AB146" d="M7.113,9.104c0.709,0.546,0.859,1.59,0.337,2.331c-0.523,0.741-1.522,0.898-2.23,0.352
	c-0.709-0.547-0.86-1.591-0.337-2.332C5.406,8.715,6.405,8.558,7.113,9.104z"/>
<line fill="#285DA7" x1="27.203" y1="13.918" x2="27.235" y2="13.907"/>
<path fill="#F9B40B" d="M25.997,13.349L21.987,9.64l-0.365-1.194l2.921,1.1l0.006-0.015c0.819,0.286,1.71-0.162,2.005-1.015
	c0.298-0.867-0.132-1.821-0.962-2.133c-0.062-0.024-0.125-0.042-0.189-0.057l-5.746-2.162c-0.008-0.003-0.015-0.004-0.023-0.008
	c-0.019-0.006-0.038-0.013-0.057-0.02c-0.017-0.005-0.034-0.009-0.051-0.015c-0.016-0.004-0.032-0.008-0.048-0.013
	c-0.016-0.004-0.033-0.008-0.048-0.012c-0.019-0.003-0.038-0.006-0.057-0.009c-0.018-0.003-0.036-0.006-0.054-0.009
	c-0.013-0.001-0.026-0.003-0.039-0.005C19.26,4.071,19.24,4.07,19.219,4.068c-0.02,0-0.04-0.002-0.06-0.002
	c-0.011,0-0.021-0.001-0.032-0.001c-0.021,0-0.042,0-0.063,0.001c-0.02,0-0.04,0.001-0.06,0.003
	c-0.01,0.001-0.021,0.001-0.031,0.002c-0.021,0.002-0.042,0.005-0.063,0.008c-0.02,0.002-0.039,0.005-0.058,0.009
	c-0.012,0.002-0.023,0.004-0.035,0.006c-0.02,0.004-0.041,0.009-0.06,0.014c-0.017,0.004-0.035,0.009-0.052,0.014
	c-0.015,0.004-0.029,0.008-0.043,0.013c-0.01,0.003-0.02,0.004-0.029,0.008c-0.01,0.002-0.019,0.007-0.028,0.011
	c-0.015,0.005-0.029,0.01-0.042,0.015c-0.017,0.007-0.034,0.014-0.051,0.021c-0.019,0.008-0.038,0.017-0.057,0.026
	c-0.011,0.005-0.021,0.01-0.032,0.016c-0.017,0.009-0.034,0.018-0.051,0.027c-0.02,0.011-0.039,0.022-0.058,0.033
	c-0.008,0.006-0.017,0.011-0.025,0.017c-0.017,0.011-0.034,0.022-0.05,0.033c-0.019,0.013-0.037,0.026-0.055,0.04
	c-0.008,0.006-0.016,0.013-0.024,0.019c-0.015,0.012-0.03,0.024-0.045,0.037c-0.017,0.015-0.034,0.029-0.05,0.044
	c-0.009,0.009-0.018,0.018-0.028,0.026c-0.012,0.013-0.024,0.025-0.037,0.038c-0.015,0.015-0.03,0.031-0.044,0.046
	c-0.01,0.012-0.021,0.025-0.031,0.037c-0.01,0.012-0.021,0.024-0.03,0.037c-0.013,0.016-0.026,0.032-0.037,0.048
	c-0.012,0.016-0.023,0.032-0.034,0.048c-0.004,0.007-0.01,0.014-0.015,0.021l-3.48,5.245c-0.043,0.051-0.085,0.104-0.124,0.161
	c-0.502,0.757-0.322,1.795,0.402,2.32c0.713,0.517,1.688,0.34,2.197-0.389l0.013,0.009l1.769-2.667l0.318,1.04l-1.247,5.636
	c-0.015,0.055-0.028,0.111-0.038,0.168c-0.153,0.907,0.425,1.772,1.292,1.932c0.779,0.145,1.523-0.33,1.779-1.083l0.001,0
	l0.004-0.017c0.026-0.081,0.049-0.165,0.064-0.252c0.005-0.027,0.007-0.053,0.01-0.079l0.712-3.196l2.353,2.172
	c0.018,0.02,0.033,0.04,0.052,0.059c0.061,0.062,0.126,0.116,0.193,0.166l0.012,0.011l0.002,0c0.626,0.458,1.495,0.393,2.049-0.197
	c0.617-0.656,0.609-1.712-0.019-2.357C26.08,13.423,26.039,13.385,25.997,13.349z"/>
<path opacity="0.86" fill="#DA2719" d="M35.936,10.317c-0.037-0.058-0.078-0.111-0.123-0.163l-3.431-5.279
	c-0.005-0.007-0.01-0.013-0.016-0.02c-0.012-0.018-0.021-0.035-0.034-0.051c-0.011-0.015-0.022-0.029-0.034-0.043
	c-0.009-0.013-0.02-0.026-0.031-0.04c-0.011-0.014-0.021-0.027-0.032-0.04c-0.014-0.015-0.026-0.028-0.04-0.042
	s-0.025-0.027-0.039-0.04c-0.01-0.01-0.019-0.02-0.029-0.029c-0.015-0.014-0.031-0.027-0.047-0.042
	c-0.015-0.013-0.029-0.026-0.046-0.038c-0.008-0.007-0.018-0.014-0.025-0.021c-0.018-0.013-0.034-0.025-0.052-0.038
	c-0.018-0.012-0.035-0.024-0.051-0.035c-0.01-0.006-0.018-0.012-0.025-0.017c-0.02-0.011-0.039-0.021-0.058-0.032
	c-0.017-0.01-0.034-0.02-0.052-0.029c-0.01-0.005-0.021-0.011-0.033-0.017c-0.017-0.009-0.035-0.017-0.054-0.026
	c-0.018-0.007-0.033-0.014-0.051-0.021c-0.015-0.005-0.027-0.011-0.043-0.016c-0.009-0.003-0.018-0.008-0.027-0.011
	s-0.02-0.005-0.028-0.009c-0.015-0.004-0.029-0.009-0.044-0.013c-0.018-0.005-0.035-0.009-0.053-0.014
	c-0.02-0.006-0.039-0.011-0.061-0.015c-0.012-0.002-0.023-0.005-0.034-0.007c-0.019-0.003-0.038-0.006-0.056-0.01
	c-0.023-0.003-0.045-0.006-0.066-0.008c-0.011-0.001-0.02-0.001-0.03-0.002c-0.019-0.002-0.039-0.003-0.059-0.004
	c-0.022-0.001-0.045-0.002-0.067-0.002c-0.01,0-0.02,0-0.029,0.001c-0.02,0-0.039,0.001-0.058,0.002
	c-0.021,0.001-0.043,0.002-0.064,0.004c-0.012,0.001-0.025,0.003-0.037,0.005c-0.018,0.002-0.035,0.004-0.051,0.007
	c-0.021,0.003-0.042,0.006-0.063,0.01c-0.016,0.003-0.031,0.008-0.046,0.011c-0.017,0.004-0.03,0.007-0.046,0.011
	c-0.02,0.005-0.039,0.01-0.058,0.016c-0.018,0.005-0.036,0.012-0.054,0.019c-0.008,0.002-0.016,0.004-0.023,0.007l-5.765,2.104
	c-0.064,0.015-0.128,0.032-0.191,0.055c-0.832,0.303-1.271,1.254-0.979,2.123c0.286,0.857,1.174,1.313,1.996,1.035l0.006,0.016
	l2.931-1.07l-0.328,1.037l-4.178,3.793c-0.043,0.034-0.085,0.073-0.126,0.113c-0.634,0.64-0.652,1.695-0.041,2.357
	c0.549,0.595,1.418,0.67,2.048,0.216l0.002,0.002l0.012-0.011c0.067-0.05,0.132-0.103,0.194-0.164
	c0.019-0.019,0.034-0.039,0.052-0.059l2.373-2.148l0.683,3.203c0.003,0.027,0.005,0.053,0.01,0.08
	c0.014,0.088,0.035,0.171,0.062,0.253l0.003,0.016l0.002-0.001c0.249,0.756,0.988,1.237,1.769,1.101
	c0.869-0.151,1.455-1.011,1.312-1.919c-0.01-0.058-0.021-0.114-0.037-0.169l-1.157-5.464l0.377-1.19l1.744,2.685l0.013-0.009
	c0.503,0.735,1.475,0.921,2.192,0.411C36.241,12.116,36.43,11.079,35.936,10.317z"/>
<path fill="#09ADDD" d="M42.272,13.244c0.001-0.021,0.002-0.042,0.001-0.063c0-0.018-0.001-0.037-0.002-0.056
	c-0.001-0.017-0.003-0.034-0.003-0.051c-0.003-0.018-0.003-0.035-0.005-0.053c-0.002-0.02-0.006-0.039-0.009-0.059
	c-0.003-0.019-0.006-0.038-0.009-0.057c-0.003-0.014-0.005-0.027-0.008-0.041c-0.003-0.021-0.01-0.042-0.015-0.062
	c-0.004-0.02-0.01-0.04-0.016-0.06c-0.003-0.011-0.006-0.021-0.01-0.032c-0.005-0.021-0.013-0.042-0.02-0.063
	c-0.008-0.02-0.015-0.039-0.022-0.059c-0.004-0.01-0.007-0.021-0.012-0.03c-0.008-0.021-0.018-0.041-0.026-0.061
	c-0.008-0.018-0.018-0.037-0.026-0.055c-0.005-0.011-0.011-0.022-0.017-0.033c-0.01-0.019-0.021-0.037-0.03-0.056
	c-0.01-0.016-0.02-0.032-0.029-0.048c-0.008-0.013-0.017-0.026-0.025-0.04c-0.005-0.008-0.01-0.017-0.016-0.025
	c-0.007-0.009-0.013-0.017-0.019-0.025c-0.01-0.013-0.019-0.024-0.027-0.037c-0.012-0.015-0.023-0.029-0.035-0.043
	c-0.013-0.017-0.026-0.033-0.04-0.049c-0.009-0.009-0.017-0.017-0.024-0.027c-0.012-0.014-0.026-0.028-0.041-0.042
	c-0.016-0.016-0.031-0.033-0.048-0.048c-0.008-0.006-0.015-0.013-0.022-0.02c-0.015-0.013-0.029-0.026-0.045-0.039
	c-0.018-0.015-0.035-0.029-0.054-0.042c-0.008-0.006-0.017-0.012-0.024-0.018c-0.016-0.011-0.032-0.022-0.048-0.033
	c-0.019-0.013-0.036-0.025-0.056-0.038c-0.01-0.006-0.021-0.012-0.031-0.019c-0.016-0.009-0.031-0.018-0.046-0.026
	c-0.019-0.01-0.038-0.02-0.057-0.029c-0.015-0.007-0.029-0.014-0.044-0.02c-0.015-0.007-0.027-0.012-0.043-0.019
	c-0.019-0.007-0.036-0.016-0.056-0.022c-0.017-0.007-0.034-0.012-0.053-0.019c-0.007-0.002-0.015-0.006-0.022-0.009l-5.849-1.838
	c-0.06-0.028-0.12-0.053-0.185-0.073c-0.844-0.265-1.733,0.235-1.986,1.116c-0.251,0.87,0.212,1.784,1.032,2.063l-0.004,0.016
	l2.972,0.935l-0.848,0.637l-5.514,0.502c-0.053,0.002-0.109,0.006-0.164,0.015c-0.873,0.127-1.481,0.97-1.359,1.882
	c0.109,0.818,0.771,1.412,1.536,1.434v0.001l0.015-0.001c0.083,0.001,0.167-0.002,0.25-0.014c0.025-0.004,0.05-0.01,0.075-0.015
	L34.239,18l-1.249,3.009c-0.014,0.023-0.025,0.046-0.037,0.07c-0.038,0.08-0.067,0.161-0.092,0.243l-0.006,0.016l0,0
	c-0.223,0.764,0.105,1.608,0.813,1.978c0.788,0.411,1.745,0.076,2.139-0.748c0.024-0.053,0.047-0.106,0.065-0.159l2.137-5.131
	l0.974-0.732l-0.097,3.243l0.015,0.001c-0.006,0.902,0.676,1.651,1.542,1.68c0.881,0.028,1.618-0.694,1.645-1.614
	c0.003-0.07,0-0.138-0.007-0.207l0.192-6.379C42.273,13.261,42.272,13.252,42.272,13.244z"/>
<path fill="#F9B40B" d="M45.634,26.019c0.01-0.015,0.02-0.029,0.026-0.043c0.01-0.016,0.019-0.029,0.027-0.046
	s0.017-0.035,0.025-0.053c0.008-0.016,0.017-0.033,0.025-0.051c0.005-0.013,0.012-0.025,0.017-0.037
	c0.009-0.021,0.015-0.04,0.022-0.059c0.007-0.02,0.015-0.038,0.021-0.058c0.003-0.011,0.007-0.021,0.011-0.032
	c0.006-0.021,0.013-0.043,0.018-0.063c0.007-0.021,0.012-0.041,0.017-0.062c0.002-0.01,0.005-0.021,0.007-0.031
	c0.006-0.021,0.01-0.043,0.013-0.065c0.004-0.02,0.007-0.04,0.011-0.06c0.001-0.013,0.003-0.024,0.004-0.036
	c0.003-0.022,0.004-0.043,0.006-0.064c0.003-0.019,0.003-0.037,0.005-0.057c0.001-0.016,0.002-0.031,0.002-0.048
	c0-0.01,0-0.021,0-0.03c0-0.012,0-0.021,0-0.032c0-0.016,0-0.031-0.002-0.048c-0.001-0.018-0.002-0.037-0.002-0.055
	c-0.003-0.021-0.005-0.043-0.007-0.064c-0.002-0.012-0.003-0.024-0.005-0.037c-0.003-0.02-0.006-0.039-0.008-0.06
	c-0.005-0.022-0.009-0.045-0.014-0.068c-0.001-0.009-0.005-0.02-0.006-0.029c-0.005-0.02-0.01-0.039-0.016-0.06
	c-0.006-0.021-0.012-0.044-0.018-0.067c-0.004-0.01-0.008-0.02-0.011-0.029c-0.006-0.019-0.013-0.038-0.02-0.056
	c-0.008-0.021-0.016-0.043-0.025-0.064c-0.004-0.012-0.009-0.023-0.015-0.035c-0.008-0.017-0.015-0.033-0.023-0.049
	c-0.008-0.02-0.018-0.039-0.027-0.06c-0.008-0.014-0.017-0.027-0.024-0.042c-0.009-0.014-0.016-0.027-0.024-0.041
	c-0.011-0.018-0.021-0.035-0.031-0.053c-0.011-0.016-0.023-0.031-0.034-0.048c-0.005-0.007-0.009-0.014-0.014-0.021l-3.696-5.081
	c-0.033-0.059-0.068-0.117-0.108-0.172c-0.534-0.732-1.534-0.874-2.236-0.318c-0.69,0.55-0.832,1.573-0.324,2.304l-0.013,0.01
	l1.881,2.583l-1.045-0.006l-4.742-2.981c-0.046-0.031-0.094-0.063-0.143-0.09c-0.777-0.433-1.744-0.124-2.158,0.688
	c-0.371,0.729-0.171,1.615,0.437,2.103l-0.001,0.002l0.013,0.008c0.066,0.05,0.135,0.099,0.211,0.141
	c0.022,0.013,0.047,0.023,0.07,0.034l2.687,1.695l-2.702,1.669c-0.024,0.012-0.047,0.021-0.07,0.033
	c-0.076,0.041-0.145,0.089-0.212,0.141l-0.014,0.009v0.001c-0.609,0.479-0.818,1.365-0.453,2.099c0.405,0.816,1.37,1.133,2.15,0.708
	c0.05-0.026,0.098-0.056,0.144-0.087l4.614-2.839l1.2,0.006l-1.904,2.563l0.013,0.01c-0.514,0.727-0.383,1.75,0.303,2.308
	c0.696,0.564,1.697,0.433,2.239-0.295c0.041-0.055,0.075-0.113,0.109-0.172l3.742-5.043c0.006-0.007,0.01-0.014,0.014-0.021
	c0.013-0.018,0.024-0.033,0.036-0.052C45.615,26.051,45.625,26.035,45.634,26.019z"/>
<path opacity="0.86" fill="#DA2719" d="M41.889,37.838c0.01-0.02,0.021-0.038,0.03-0.058c0.007-0.01,0.012-0.021,0.018-0.031
	c0.009-0.018,0.017-0.036,0.025-0.054c0.01-0.021,0.02-0.042,0.028-0.063c0.004-0.009,0.009-0.019,0.012-0.027
	c0.007-0.02,0.015-0.038,0.022-0.058c0.007-0.021,0.015-0.044,0.021-0.065c0.004-0.011,0.006-0.021,0.009-0.03
	c0.007-0.02,0.011-0.038,0.016-0.059c0.006-0.021,0.012-0.043,0.018-0.065c0.001-0.013,0.004-0.026,0.006-0.038
	c0.004-0.019,0.007-0.036,0.01-0.054c0.003-0.021,0.007-0.043,0.01-0.064c0.001-0.017,0.003-0.032,0.004-0.049
	s0.004-0.032,0.005-0.048c0-0.021,0.002-0.042,0.003-0.063c0.001-0.02,0-0.04,0-0.06c0-0.009,0.001-0.018,0.001-0.025l-0.136-6.382
	c0.008-0.067,0.012-0.137,0.01-0.206c-0.019-0.921-0.748-1.65-1.629-1.63c-0.869,0.02-1.557,0.762-1.558,1.664l-0.016,0.001
	l0.068,3.242l-0.843-0.646l-2.16-5.324c-0.019-0.054-0.04-0.107-0.065-0.16c-0.386-0.828-1.34-1.173-2.131-0.769
	c-0.71,0.36-1.048,1.201-0.831,1.968l-0.002,0.001l0.006,0.015c0.024,0.083,0.054,0.165,0.092,0.244
	c0.011,0.024,0.025,0.048,0.036,0.07l1.222,3.022l-3.125-0.311c-0.026-0.006-0.051-0.012-0.076-0.017
	c-0.083-0.013-0.167-0.017-0.249-0.017l-0.015-0.001v0.001c-0.766,0.014-1.433,0.602-1.55,1.419c-0.129,0.911,0.47,1.76,1.342,1.896
	c0.056,0.01,0.111,0.014,0.166,0.017l5.329,0.539l0.967,0.741l-2.982,0.904l0.005,0.016c-0.823,0.272-1.294,1.182-1.052,2.054
	c0.245,0.883,1.131,1.393,1.977,1.136c0.063-0.021,0.126-0.044,0.187-0.071l5.863-1.78c0.008-0.001,0.016-0.005,0.023-0.008
	c0.02-0.006,0.038-0.013,0.058-0.019c0.017-0.007,0.032-0.013,0.049-0.021c0.016-0.006,0.031-0.012,0.046-0.019
	s0.03-0.014,0.046-0.021c0.017-0.009,0.034-0.018,0.051-0.026c0.017-0.01,0.033-0.018,0.049-0.027
	c0.012-0.006,0.023-0.013,0.034-0.02c0.019-0.011,0.035-0.022,0.053-0.034c0.017-0.011,0.033-0.021,0.049-0.034
	c0.01-0.006,0.019-0.011,0.027-0.019c0.018-0.013,0.033-0.026,0.051-0.04c0.016-0.013,0.031-0.026,0.047-0.04
	c0.008-0.007,0.016-0.014,0.023-0.021c0.016-0.015,0.032-0.03,0.047-0.046c0.015-0.014,0.028-0.028,0.043-0.042
	c0.007-0.01,0.015-0.019,0.023-0.027c0.014-0.016,0.028-0.031,0.042-0.048c0.011-0.015,0.022-0.029,0.034-0.043
	c0.009-0.013,0.019-0.025,0.028-0.038c0.006-0.008,0.014-0.016,0.019-0.023c0.006-0.009,0.011-0.018,0.017-0.026
	c0.009-0.012,0.017-0.025,0.025-0.038C41.869,37.87,41.878,37.854,41.889,37.838z"/>
<path fill="#5AB146" d="M35.334,37.459c-0.714-0.517-1.688-0.341-2.196,0.39l-0.013-0.01l-1.77,2.666l-0.318-1.04l1.249-5.635
	c0.014-0.056,0.027-0.112,0.036-0.17c0.154-0.906-0.424-1.771-1.293-1.932c-0.778-0.145-1.521,0.33-1.778,1.083h-0.002l-0.002,0.016
	c-0.027,0.081-0.051,0.165-0.064,0.253c-0.005,0.026-0.008,0.052-0.01,0.08l-0.712,3.194l-2.354-2.171
	c-0.018-0.021-0.033-0.041-0.053-0.06c-0.06-0.062-0.125-0.117-0.193-0.166l-0.011-0.012l-0.001,0.002
	c-0.627-0.459-1.496-0.393-2.05,0.195c-0.618,0.657-0.609,1.712,0.019,2.357c0.04,0.041,0.082,0.079,0.125,0.115l4.009,3.71
	l0.364,1.195l-2.921-1.101l-0.004,0.016c-0.82-0.287-1.712,0.161-2.006,1.014c-0.298,0.866,0.131,1.821,0.96,2.134
	c0.063,0.024,0.126,0.041,0.189,0.057l5.745,2.163c0.008,0.003,0.017,0.005,0.023,0.008c0.02,0.006,0.038,0.014,0.058,0.02
	c0.017,0.005,0.034,0.01,0.05,0.015c0.018,0.005,0.033,0.009,0.049,0.013c0.017,0.003,0.033,0.008,0.05,0.011
	c0.019,0.004,0.037,0.007,0.056,0.011c0.018,0.003,0.037,0.006,0.055,0.008c0.012,0.002,0.025,0.004,0.039,0.006
	c0.02,0.002,0.041,0.003,0.061,0.004c0.021,0.002,0.039,0.003,0.059,0.004c0.012,0,0.023,0,0.033,0c0.021,0,0.043,0,0.064-0.001
	c0.02-0.001,0.039-0.002,0.06-0.003c0.011-0.001,0.021-0.001,0.03-0.002c0.021-0.003,0.042-0.006,0.063-0.008
	c0.021-0.003,0.039-0.007,0.059-0.01c0.011-0.002,0.024-0.005,0.035-0.006c0.021-0.004,0.04-0.009,0.061-0.014
	c0.017-0.004,0.034-0.009,0.052-0.014c0.015-0.004,0.029-0.009,0.044-0.014c0.011-0.003,0.019-0.005,0.029-0.008
	c0.01-0.003,0.02-0.007,0.028-0.011c0.014-0.005,0.028-0.011,0.042-0.017c0.017-0.006,0.033-0.013,0.049-0.021
	c0.021-0.009,0.04-0.016,0.06-0.025c0.01-0.005,0.021-0.01,0.03-0.016c0.019-0.009,0.035-0.018,0.052-0.028
	c0.02-0.011,0.039-0.021,0.058-0.032c0.01-0.006,0.018-0.011,0.026-0.016c0.016-0.011,0.033-0.022,0.048-0.034
	c0.019-0.012,0.037-0.024,0.057-0.038c0.008-0.007,0.016-0.015,0.022-0.02c0.016-0.013,0.03-0.025,0.046-0.037
	c0.017-0.014,0.035-0.029,0.051-0.044c0.009-0.008,0.018-0.017,0.026-0.026c0.014-0.012,0.026-0.024,0.038-0.038
	c0.016-0.016,0.03-0.03,0.045-0.046c0.01-0.013,0.021-0.025,0.03-0.038c0.011-0.012,0.021-0.024,0.03-0.036
	c0.013-0.016,0.026-0.031,0.038-0.049c0.013-0.015,0.022-0.03,0.034-0.046c0.004-0.008,0.01-0.014,0.014-0.021l3.48-5.245
	c0.044-0.051,0.085-0.104,0.124-0.161C36.237,39.023,36.058,37.983,35.334,37.459z"/>
<path fill="#09ADDD" d="M24.342,40.41l-0.004-0.016l-2.932,1.07l0.328-1.037l4.178-3.793c0.043-0.035,0.086-0.073,0.125-0.114
	c0.633-0.639,0.652-1.693,0.04-2.356c-0.548-0.595-1.416-0.668-2.047-0.217l-0.001-0.001l-0.012,0.011
	c-0.068,0.049-0.133,0.104-0.194,0.164c-0.019,0.019-0.035,0.04-0.053,0.06l-2.374,2.147l-0.682-3.203
	c-0.003-0.026-0.005-0.053-0.009-0.08c-0.014-0.087-0.036-0.171-0.062-0.252l-0.003-0.016H20.64
	c-0.249-0.756-0.988-1.237-1.769-1.102c-0.869,0.152-1.455,1.012-1.31,1.919c0.009,0.059,0.021,0.114,0.036,0.17l1.157,5.465
	l-0.376,1.189l-1.746-2.685l-0.013,0.01c-0.501-0.735-1.475-0.922-2.193-0.411c-0.729,0.519-0.917,1.554-0.422,2.315
	c0.037,0.058,0.079,0.111,0.122,0.162l3.432,5.28c0.005,0.007,0.01,0.014,0.015,0.021c0.011,0.016,0.022,0.033,0.035,0.05
	c0.011,0.016,0.022,0.029,0.033,0.044c0.01,0.013,0.021,0.026,0.032,0.038c0.011,0.014,0.021,0.026,0.032,0.039
	c0.013,0.016,0.027,0.029,0.041,0.043c0.013,0.014,0.025,0.027,0.039,0.041c0.01,0.009,0.019,0.019,0.029,0.027
	c0.015,0.015,0.031,0.028,0.046,0.042c0.015,0.013,0.031,0.026,0.047,0.038c0.008,0.008,0.017,0.015,0.025,0.021
	c0.017,0.013,0.034,0.025,0.052,0.038c0.017,0.013,0.034,0.024,0.05,0.035c0.009,0.005,0.018,0.012,0.026,0.017
	c0.018,0.012,0.037,0.021,0.056,0.032c0.017,0.011,0.035,0.02,0.052,0.029c0.011,0.006,0.021,0.011,0.032,0.016
	c0.019,0.01,0.037,0.019,0.056,0.027c0.017,0.006,0.034,0.014,0.05,0.021c0.014,0.006,0.028,0.011,0.042,0.016
	c0.009,0.003,0.019,0.008,0.028,0.012s0.019,0.005,0.028,0.009c0.014,0.004,0.029,0.008,0.043,0.013
	c0.017,0.005,0.035,0.009,0.052,0.014c0.021,0.007,0.041,0.011,0.062,0.016c0.012,0.002,0.022,0.004,0.034,0.007
	c0.019,0.003,0.038,0.006,0.057,0.009c0.022,0.003,0.044,0.006,0.066,0.01c0.01,0,0.02,0,0.029,0.001
	c0.019,0.003,0.039,0.004,0.059,0.004c0.022,0.002,0.045,0.003,0.066,0.003c0.011,0,0.021-0.001,0.031-0.001
	c0.019,0,0.038-0.002,0.057-0.002c0.022-0.001,0.043-0.003,0.065-0.005c0.013,0,0.025-0.003,0.038-0.005
	c0.017-0.002,0.034-0.005,0.051-0.007c0.02-0.004,0.041-0.007,0.061-0.011c0.016-0.003,0.031-0.007,0.047-0.012
	c0.015-0.003,0.03-0.007,0.045-0.01c0.019-0.006,0.038-0.011,0.057-0.017c0.018-0.006,0.036-0.012,0.054-0.019
	c0.008-0.001,0.016-0.004,0.023-0.006l5.765-2.106c0.063-0.014,0.128-0.03,0.19-0.054c0.831-0.304,1.27-1.256,0.98-2.123
	C26.053,40.587,25.165,40.131,24.342,40.41z"/>
<path fill="#F9B40B" d="M20.705,33.091c-0.11-0.818-0.771-1.413-1.535-1.434v-0.002l-0.017,0.001
	c-0.082-0.001-0.165,0.003-0.249,0.015c-0.026,0.004-0.05,0.01-0.075,0.016l-3.128,0.28l1.249-3.011
	c0.012-0.023,0.026-0.047,0.038-0.07c0.038-0.079,0.067-0.161,0.092-0.243l0.006-0.015l-0.002-0.001
	c0.224-0.765-0.104-1.608-0.812-1.977c-0.789-0.411-1.746-0.077-2.139,0.747c-0.025,0.053-0.047,0.106-0.066,0.159l-2.136,5.132
	l-0.974,0.732l0.098-3.244l-0.016-0.001c0.008-0.902-0.674-1.651-1.543-1.681c-0.88-0.028-1.617,0.694-1.644,1.614
	c-0.002,0.069,0.001,0.139,0.007,0.207l-0.192,6.38c0,0.008,0.001,0.017,0,0.025c0,0.021-0.001,0.041,0,0.062
	c0,0.019,0.002,0.037,0.002,0.056c0.001,0.018,0.002,0.034,0.004,0.052c0.001,0.018,0.002,0.035,0.004,0.053
	c0.002,0.02,0.005,0.039,0.008,0.06c0.003,0.018,0.006,0.038,0.009,0.056c0.002,0.014,0.005,0.028,0.007,0.04
	c0.004,0.022,0.009,0.042,0.015,0.063c0.005,0.02,0.01,0.041,0.016,0.059c0.003,0.012,0.006,0.022,0.009,0.032
	c0.006,0.021,0.014,0.043,0.021,0.063c0.007,0.02,0.014,0.039,0.021,0.06c0.004,0.01,0.007,0.02,0.012,0.029
	c0.008,0.021,0.018,0.04,0.026,0.061c0.008,0.02,0.017,0.037,0.026,0.055c0.005,0.012,0.011,0.021,0.017,0.034
	c0.01,0.018,0.021,0.036,0.031,0.055c0.009,0.017,0.019,0.031,0.029,0.048c0.008,0.014,0.017,0.026,0.025,0.04
	c0.006,0.009,0.01,0.019,0.016,0.026c0.006,0.008,0.013,0.016,0.019,0.023c0.009,0.013,0.018,0.025,0.028,0.038
	c0.011,0.016,0.022,0.028,0.034,0.044c0.014,0.016,0.027,0.032,0.042,0.048c0.007,0.009,0.016,0.019,0.024,0.027
	c0.013,0.015,0.027,0.028,0.041,0.041c0.016,0.016,0.032,0.033,0.048,0.048c0.007,0.007,0.015,0.014,0.022,0.02
	c0.015,0.014,0.03,0.026,0.045,0.04c0.017,0.015,0.034,0.029,0.053,0.043c0.008,0.006,0.017,0.012,0.025,0.019
	c0.016,0.011,0.031,0.021,0.047,0.033c0.018,0.013,0.037,0.024,0.056,0.036c0.01,0.007,0.021,0.013,0.032,0.019
	c0.016,0.01,0.031,0.018,0.047,0.026c0.019,0.009,0.036,0.021,0.055,0.029c0.015,0.008,0.03,0.014,0.044,0.02
	c0.014,0.007,0.028,0.013,0.043,0.02c0.018,0.007,0.036,0.015,0.055,0.021c0.018,0.008,0.036,0.013,0.054,0.019
	c0.007,0.002,0.015,0.007,0.022,0.009l5.848,1.839c0.06,0.027,0.121,0.053,0.185,0.072c0.843,0.266,1.733-0.233,1.987-1.115
	c0.25-0.869-0.212-1.783-1.033-2.063l0.004-0.015l-2.972-0.937l0.848-0.637l5.514-0.501c0.055-0.003,0.109-0.007,0.166-0.016
	C20.218,34.845,20.826,34.003,20.705,33.091z"/>
<path opacity="0.86" fill="#DA2719" d="M16.523,26.819l0.001-0.001l-0.014-0.008c-0.066-0.053-0.135-0.101-0.21-0.143
	c-0.023-0.013-0.046-0.023-0.07-0.034l-2.687-1.695l2.702-1.668c0.023-0.012,0.047-0.021,0.07-0.033
	c0.075-0.042,0.145-0.089,0.211-0.14l0.014-0.009l-0.001-0.002c0.611-0.481,0.82-1.365,0.455-2.098
	c-0.407-0.817-1.37-1.135-2.151-0.71c-0.05,0.027-0.097,0.057-0.143,0.089l-4.615,2.838l-1.199-0.006l1.903-2.564l-0.012-0.009
	c0.514-0.726,0.383-1.751-0.303-2.307c-0.696-0.564-1.697-0.433-2.238,0.295c-0.042,0.056-0.077,0.113-0.11,0.171l-3.743,5.043
	c-0.005,0.007-0.01,0.014-0.015,0.021c-0.012,0.017-0.024,0.033-0.036,0.051c-0.01,0.015-0.02,0.03-0.028,0.045
	c-0.01,0.015-0.019,0.029-0.027,0.044c-0.009,0.016-0.017,0.03-0.026,0.045c-0.009,0.018-0.017,0.035-0.026,0.053
	c-0.008,0.018-0.017,0.035-0.024,0.052c-0.006,0.013-0.012,0.024-0.017,0.037c-0.008,0.02-0.015,0.04-0.023,0.06
	c-0.007,0.019-0.015,0.038-0.021,0.057c-0.004,0.011-0.007,0.021-0.012,0.032c-0.006,0.021-0.012,0.042-0.018,0.063
	c-0.005,0.02-0.011,0.04-0.016,0.062c-0.002,0.01-0.005,0.021-0.007,0.03c-0.004,0.022-0.009,0.044-0.012,0.065
	c-0.004,0.021-0.007,0.04-0.01,0.062c-0.002,0.013-0.003,0.024-0.004,0.037c-0.003,0.021-0.005,0.042-0.006,0.063
	c-0.001,0.019-0.003,0.037-0.004,0.057c0,0.016-0.001,0.031-0.001,0.047c0,0.011-0.001,0.021-0.001,0.031s0.001,0.021,0.001,0.032
	c0,0.016,0.001,0.031,0.002,0.047c0,0.018,0.001,0.037,0.003,0.056c0.001,0.022,0.003,0.043,0.006,0.065
	c0.001,0.012,0.003,0.023,0.004,0.036c0.003,0.021,0.006,0.04,0.009,0.06c0.004,0.023,0.008,0.046,0.012,0.067
	c0.002,0.011,0.005,0.021,0.007,0.03c0.004,0.021,0.01,0.04,0.015,0.06c0.005,0.022,0.012,0.046,0.019,0.067
	c0.003,0.009,0.006,0.02,0.01,0.03c0.006,0.019,0.013,0.037,0.019,0.056c0.009,0.021,0.016,0.043,0.024,0.063
	c0.005,0.012,0.01,0.024,0.016,0.036c0.007,0.017,0.015,0.032,0.023,0.049c0.009,0.021,0.018,0.039,0.028,0.059
	c0.008,0.015,0.016,0.028,0.024,0.042c0.008,0.015,0.016,0.028,0.024,0.042c0.011,0.018,0.021,0.035,0.032,0.052
	c0.01,0.017,0.022,0.032,0.033,0.049c0.005,0.006,0.009,0.014,0.014,0.02l3.697,5.082c0.033,0.059,0.068,0.116,0.109,0.173
	c0.533,0.731,1.533,0.875,2.235,0.315c0.691-0.549,0.832-1.571,0.325-2.302l0.012-0.01l-1.879-2.583l1.045,0.005l4.742,2.981
	c0.045,0.032,0.092,0.063,0.142,0.09c0.778,0.433,1.744,0.125,2.158-0.688C17.33,28.193,17.13,27.307,16.523,26.819z"/>
<path fill="#5AB146" d="M19.424,14.957c-0.055-0.009-0.111-0.014-0.165-0.017l-5.329-0.538l-0.968-0.742l2.982-0.905l-0.004-0.015
	c0.824-0.271,1.294-1.182,1.052-2.053c-0.246-0.884-1.13-1.393-1.976-1.136c-0.064,0.02-0.126,0.044-0.187,0.071l-5.864,1.78
	c-0.008,0.002-0.015,0.006-0.023,0.008c-0.019,0.006-0.038,0.012-0.057,0.019c-0.017,0.006-0.034,0.013-0.05,0.02
	c-0.016,0.006-0.031,0.013-0.046,0.019c-0.016,0.007-0.031,0.013-0.046,0.021c-0.017,0.008-0.034,0.018-0.051,0.026
	c-0.016,0.009-0.032,0.018-0.048,0.026c-0.011,0.007-0.023,0.013-0.035,0.02c-0.018,0.01-0.035,0.022-0.051,0.034
	c-0.017,0.011-0.034,0.022-0.05,0.034c-0.009,0.006-0.018,0.012-0.027,0.019c-0.018,0.013-0.034,0.026-0.051,0.04
	c-0.016,0.013-0.031,0.026-0.047,0.04c-0.008,0.007-0.016,0.014-0.023,0.021c-0.016,0.014-0.031,0.029-0.047,0.045
	c-0.014,0.014-0.028,0.028-0.042,0.043c-0.008,0.009-0.017,0.018-0.024,0.027c-0.014,0.016-0.028,0.031-0.042,0.047
	c-0.011,0.014-0.023,0.029-0.034,0.043c-0.009,0.012-0.019,0.025-0.028,0.037C8.137,12,8.13,12.007,8.124,12.016
	c-0.006,0.008-0.011,0.018-0.017,0.026c-0.009,0.013-0.017,0.026-0.026,0.039c-0.01,0.016-0.019,0.031-0.028,0.047
	c-0.011,0.019-0.022,0.038-0.032,0.057c-0.005,0.011-0.012,0.021-0.017,0.032c-0.009,0.018-0.018,0.036-0.026,0.053
	c-0.009,0.021-0.019,0.042-0.028,0.063c-0.004,0.01-0.008,0.019-0.011,0.028c-0.007,0.019-0.015,0.038-0.021,0.057
	c-0.008,0.022-0.016,0.044-0.023,0.066c-0.003,0.01-0.005,0.021-0.009,0.031c-0.005,0.019-0.01,0.038-0.016,0.058
	c-0.006,0.021-0.011,0.044-0.016,0.065c-0.003,0.013-0.005,0.026-0.007,0.038c-0.003,0.019-0.006,0.036-0.009,0.054
	c-0.004,0.021-0.007,0.043-0.01,0.064c-0.002,0.017-0.003,0.033-0.004,0.049c-0.001,0.017-0.002,0.032-0.004,0.049
	c-0.001,0.021-0.003,0.041-0.003,0.062c0,0.02,0,0.04,0,0.059c0,0.009-0.001,0.017,0,0.026l0.133,6.382
	c-0.007,0.067-0.011,0.135-0.009,0.206c0.019,0.921,0.749,1.65,1.629,1.63c0.868-0.02,1.557-0.762,1.558-1.664l0.015-0.001
	l-0.067-3.244l0.842,0.646l2.16,5.325c0.019,0.054,0.041,0.107,0.065,0.16c0.386,0.828,1.34,1.173,2.132,0.77
	c0.71-0.362,1.047-1.202,0.83-1.97h0.001l-0.006-0.016c-0.023-0.081-0.052-0.163-0.089-0.243c-0.012-0.024-0.025-0.045-0.038-0.07
	l-1.221-3.023l3.125,0.312c0.025,0.006,0.05,0.012,0.076,0.016c0.084,0.014,0.167,0.017,0.25,0.017l0.016,0.001v-0.001
	c0.765-0.014,1.431-0.601,1.548-1.418C20.896,15.941,20.295,15.093,19.424,14.957z"/>
<path fill="#9C9B9B" d="M32.496,24.945c0,4.37-3.304,7.847-7.485,7.847c-4.157,0-7.507-3.478-7.507-7.847
	c0-4.322,3.35-7.8,7.507-7.8C29.192,17.146,32.496,20.623,32.496,24.945z M21.385,26.95c-0.093-0.605-0.138-1.28-0.138-1.933
	c0-0.482,0.023-0.869,0.068-1.328c-1.063-0.217-1.686-0.386-2.171-0.604c-0.162,0.58-0.254,1.231-0.254,1.86
	c0,0.314,0,0.627,0.046,0.893C19.237,26.201,19.999,26.683,21.385,26.95z M22.656,30.835c-0.531-0.772-0.878-1.762-1.109-2.922
	c-0.924-0.216-1.755-0.482-2.31-0.796c0.347,0.894,0.785,1.69,1.455,2.343C21.247,30.088,21.94,30.522,22.656,30.835z
	 M19.491,22.241c0.208,0.192,0.555,0.216,1.917,0.603c0.254-1.544,0.693-2.825,1.386-3.79c-0.785,0.386-1.479,0.725-2.103,1.424
	C20.161,20.985,19.768,21.613,19.491,22.241z M22.216,27.118c0.786,0.145,1.548,0.218,2.334,0.241v-3.405
	c-0.832-0.024-1.664-0.072-2.449-0.168c0,0.435-0.023,0.797-0.023,1.231C22.078,25.718,22.125,26.465,22.216,27.118z M22.216,22.964
	c0.763,0.073,1.548,0.121,2.334,0.146v-4.491c0,0-0.023,0-0.047,0C23.464,19.053,22.586,20.744,22.216,22.964z M24.55,31.32v-3.115
	c-0.716-0.024-1.433-0.073-2.126-0.146c0.139,0.628,0.347,1.183,0.625,1.69C23.395,30.62,23.926,31.32,24.55,31.32z M25.428,18.619
	v4.491c0.809-0.024,1.571-0.072,2.356-0.146c-0.301-1.738-0.971-3.26-1.757-4.007C25.821,18.812,25.59,18.619,25.428,18.619z
	 M27.761,27.142c0.115-0.652,0.139-1.401,0.139-2.125c0-0.435,0-0.796-0.023-1.207c-0.785,0.072-1.594,0.12-2.448,0.144v3.405
	C26.236,27.335,26.999,27.262,27.761,27.142z M27.575,28.059c-0.715,0.072-1.431,0.121-2.147,0.146v3.115
	C26.628,31.32,27.276,29.147,27.575,28.059z M27.206,19.029c0.693,0.941,1.132,2.27,1.363,3.839
	c1.247-0.242,1.756-0.459,1.941-0.604C29.862,20.767,28.639,19.561,27.206,19.029z M30.694,27.213
	c-0.601,0.291-1.385,0.531-2.239,0.726c-0.255,1.159-0.579,2.101-1.135,2.896c0.718-0.313,1.435-0.747,1.989-1.375
	C29.955,28.832,30.394,28.059,30.694,27.213z M28.732,25.017c0,0.653-0.047,1.353-0.116,1.956c2.401-0.411,2.493-0.99,2.493-2.028
	c0-0.605-0.092-1.256-0.275-1.835c-0.44,0.193-1.227,0.482-2.148,0.579C28.732,24.148,28.732,24.535,28.732,25.017z"/>
</svg>
