<?xml version="1.0" encoding="utf-8"?>
<!-- Generator: Adobe Illustrator 15.0.0, SVG Export Plug-In  -->
<!DOCTYPE svg PUBLIC "-//W3C//DTD SVG 1.1//EN" "http://www.w3.org/Graphics/SVG/1.1/DTD/svg11.dtd" [
	<!ENTITY ns_flows "http://ns.adobe.com/Flows/1.0/">
]>
<svg version="1.1"
	 xmlns="http://www.w3.org/2000/svg" xmlns:xlink="http://www.w3.org/1999/xlink" xmlns:a="http://ns.adobe.com/AdobeSVGViewerExtensions/3.0/"
	 x="0px" y="0px" width="50px" height="48px" viewBox="0 0 50 48" enable-background="new 0 0 50 48" xml:space="preserve">
<defs>
</defs>
<circle fill="#38A7DF" cx="17.927" cy="1.6" r="1.599"/>
<circle fill="#38A7DF" cx="32.443" cy="1.671" r="1.599"/>
<circle fill="#38A7DF" cx="44.142" cy="10.263" r="1.599"/>
<circle fill="#38A7DF" cx="48.552" cy="24.094" r="1.6"/>
<circle fill="#38A7DF" cx="43.986" cy="37.873" r="1.599"/>
<circle opacity="0.8" fill="#38A7DF" cx="32.191" cy="46.333" r="1.599"/>
<circle fill="#38A7DF" cx="17.676" cy="46.241" r="1.6"/>
<circle fill="#38A7DF" cx="5.989" cy="37.632" r="1.599"/>
<circle fill="#38A7DF" cx="1.6" cy="23.795" r="1.599"/>
<circle fill="#38A7DF" cx="6.185" cy="10.023" r="1.599"/>
<line fill="#39A8E0" x1="27.281" y1="13.355" x2="27.314" y2="13.344"/>
<path fill="#38A7DF" d="M26.071,12.809l-4.02-3.559l-0.366-1.146l2.93,1.055l0.004-0.014c0.821,0.274,1.716-0.155,2.012-0.974
	c0.3-0.831-0.133-1.747-0.964-2.047c-0.062-0.022-0.126-0.039-0.19-0.054l-5.763-2.075c-0.008-0.003-0.016-0.005-0.023-0.007
	c-0.019-0.006-0.038-0.013-0.057-0.02c-0.017-0.005-0.035-0.009-0.052-0.013c-0.016-0.004-0.032-0.008-0.048-0.012
	c-0.017-0.004-0.033-0.009-0.049-0.011c-0.018-0.004-0.037-0.006-0.056-0.01c-0.019-0.003-0.037-0.006-0.055-0.008
	c-0.013-0.001-0.026-0.003-0.039-0.005c-0.02-0.002-0.041-0.003-0.061-0.004s-0.04-0.002-0.059-0.002
	C19.205,3.901,19.194,3.9,19.184,3.9c-0.021,0-0.042,0.001-0.063,0.002c-0.021,0-0.041,0.001-0.061,0.003
	c-0.01,0-0.021,0.001-0.031,0.002c-0.021,0.002-0.042,0.005-0.063,0.008c-0.02,0.002-0.039,0.005-0.059,0.008
	c-0.011,0.002-0.023,0.004-0.035,0.006c-0.02,0.004-0.04,0.008-0.06,0.013c-0.018,0.004-0.035,0.008-0.053,0.013
	c-0.015,0.004-0.029,0.007-0.043,0.012c-0.01,0.003-0.02,0.005-0.029,0.007c-0.01,0.003-0.019,0.007-0.028,0.011
	c-0.014,0.004-0.029,0.009-0.042,0.015c-0.017,0.006-0.034,0.013-0.05,0.02c-0.02,0.008-0.039,0.016-0.058,0.024
	c-0.01,0.005-0.021,0.011-0.031,0.015c-0.018,0.009-0.035,0.018-0.052,0.027c-0.019,0.01-0.039,0.02-0.058,0.031
	c-0.008,0.005-0.016,0.011-0.025,0.016c-0.017,0.011-0.033,0.021-0.05,0.032c-0.019,0.013-0.038,0.024-0.056,0.038
	c-0.009,0.006-0.016,0.013-0.024,0.02c-0.016,0.011-0.03,0.023-0.045,0.034c-0.017,0.014-0.035,0.028-0.051,0.042
	c-0.009,0.009-0.018,0.018-0.027,0.026c-0.013,0.012-0.025,0.024-0.037,0.035c-0.015,0.015-0.03,0.029-0.044,0.045
	c-0.011,0.012-0.021,0.024-0.032,0.035c-0.01,0.012-0.02,0.024-0.03,0.036c-0.013,0.015-0.026,0.03-0.038,0.045
	c-0.012,0.016-0.022,0.031-0.033,0.046c-0.005,0.007-0.01,0.013-0.015,0.021l-3.49,5.032c-0.044,0.049-0.086,0.1-0.124,0.155
	c-0.503,0.726-0.323,1.723,0.403,2.226c0.715,0.496,1.693,0.327,2.203-0.373l0.013,0.009l1.774-2.559l0.319,0.998l-1.25,5.407
	c-0.016,0.052-0.028,0.106-0.038,0.162c-0.154,0.87,0.427,1.7,1.297,1.854c0.78,0.139,1.527-0.315,1.784-1.039l0.001,0l0.003-0.015
	c0.027-0.078,0.05-0.158,0.065-0.242c0.005-0.026,0.006-0.051,0.009-0.077l0.714-3.066l2.361,2.083
	c0.017,0.02,0.032,0.039,0.052,0.057c0.061,0.06,0.125,0.111,0.193,0.16l0.011,0.01l0.001-0.001c0.628,0.44,1.5,0.376,2.057-0.188
	c0.619-0.629,0.609-1.643-0.02-2.262C26.156,12.879,26.115,12.844,26.071,12.809z"/>
<path fill="#38A7DF" d="M36.04,9.9c-0.037-0.056-0.078-0.107-0.122-0.157l-3.442-5.065c-0.005-0.007-0.01-0.012-0.015-0.019
	c-0.012-0.016-0.022-0.033-0.036-0.05c-0.01-0.014-0.021-0.027-0.031-0.041s-0.022-0.026-0.032-0.039
	c-0.012-0.012-0.022-0.025-0.033-0.038c-0.014-0.014-0.027-0.027-0.04-0.042c-0.014-0.013-0.026-0.025-0.04-0.038
	c-0.009-0.009-0.019-0.018-0.027-0.027c-0.016-0.013-0.032-0.026-0.049-0.039c-0.015-0.012-0.03-0.025-0.046-0.037
	c-0.008-0.007-0.017-0.014-0.024-0.02c-0.017-0.012-0.035-0.024-0.052-0.036c-0.018-0.012-0.034-0.022-0.051-0.033
	c-0.01-0.006-0.018-0.011-0.026-0.017c-0.02-0.01-0.037-0.021-0.056-0.032c-0.02-0.008-0.036-0.017-0.054-0.027
	c-0.01-0.004-0.021-0.011-0.031-0.016c-0.02-0.008-0.037-0.016-0.058-0.024c-0.016-0.007-0.032-0.014-0.05-0.021
	c-0.014-0.005-0.029-0.01-0.043-0.016c-0.009-0.003-0.018-0.008-0.027-0.011s-0.02-0.004-0.029-0.008
	c-0.015-0.005-0.029-0.009-0.043-0.013c-0.018-0.005-0.034-0.009-0.053-0.013c-0.021-0.005-0.04-0.01-0.06-0.014
	c-0.013-0.002-0.024-0.005-0.036-0.007C31.415,4,31.396,3.997,31.377,3.995c-0.021-0.003-0.044-0.006-0.065-0.008
	c-0.01,0-0.02-0.001-0.029-0.002c-0.02-0.001-0.04-0.003-0.059-0.004c-0.023,0-0.045-0.002-0.067-0.002
	c-0.01,0-0.021,0.001-0.031,0.001c-0.019,0.001-0.037,0.001-0.057,0.002c-0.021,0.001-0.044,0.002-0.065,0.004
	c-0.012,0.001-0.024,0.003-0.037,0.004c-0.019,0.002-0.033,0.005-0.053,0.007c-0.02,0.004-0.041,0.006-0.061,0.01
	c-0.017,0.003-0.031,0.007-0.047,0.011c-0.016,0.003-0.029,0.007-0.045,0.01c-0.02,0.005-0.039,0.01-0.059,0.016
	c-0.017,0.005-0.035,0.011-0.054,0.017c-0.008,0.003-0.016,0.004-0.023,0.007l-5.781,2.02c-0.065,0.014-0.128,0.03-0.192,0.052
	c-0.834,0.292-1.274,1.204-0.983,2.038C23.957,9,24.847,9.438,25.67,9.17l0.007,0.015l2.939-1.027l-0.329,0.995l-4.19,3.64
	c-0.043,0.034-0.085,0.07-0.125,0.109c-0.638,0.613-0.654,1.626-0.042,2.262c0.55,0.571,1.421,0.642,2.053,0.208l0.002,0l0.012-0.01
	c0.068-0.048,0.132-0.099,0.194-0.158c0.018-0.018,0.034-0.038,0.052-0.057l2.38-2.061l0.686,3.074
	c0.003,0.025,0.005,0.051,0.008,0.076c0.015,0.084,0.036,0.165,0.063,0.242l0.003,0.016h0.002c0.25,0.725,0.992,1.186,1.774,1.056
	c0.871-0.146,1.459-0.97,1.314-1.841c-0.01-0.056-0.022-0.109-0.037-0.163l-1.161-5.243l0.379-1.142l1.749,2.576l0.013-0.009
	c0.505,0.706,1.479,0.883,2.2,0.395C36.348,11.625,36.535,10.631,36.04,9.9z"/>
<path fill="#38A7DF" d="M42.396,12.708c0-0.02,0.002-0.04,0.002-0.06c-0.002-0.018-0.002-0.036-0.003-0.053
	c-0.002-0.017-0.002-0.033-0.004-0.05c-0.001-0.017-0.003-0.034-0.005-0.049c-0.002-0.02-0.005-0.038-0.007-0.057
	c-0.003-0.019-0.006-0.037-0.011-0.055c-0.002-0.013-0.003-0.026-0.007-0.039c-0.005-0.019-0.01-0.039-0.015-0.059
	c-0.005-0.02-0.01-0.038-0.016-0.057c-0.003-0.01-0.006-0.021-0.009-0.031c-0.007-0.021-0.015-0.04-0.021-0.061
	c-0.008-0.019-0.014-0.038-0.021-0.057c-0.005-0.009-0.008-0.018-0.012-0.028c-0.009-0.019-0.018-0.039-0.026-0.058
	c-0.01-0.017-0.018-0.035-0.026-0.053c-0.007-0.01-0.011-0.021-0.018-0.031c-0.01-0.018-0.02-0.035-0.031-0.054
	c-0.009-0.016-0.018-0.031-0.029-0.045c-0.007-0.013-0.017-0.025-0.024-0.038c-0.006-0.008-0.01-0.017-0.017-0.024
	c-0.006-0.008-0.013-0.016-0.02-0.024c-0.008-0.012-0.018-0.024-0.027-0.037c-0.01-0.014-0.023-0.027-0.033-0.041
	c-0.015-0.017-0.027-0.032-0.042-0.047c-0.008-0.01-0.015-0.018-0.024-0.026c-0.013-0.014-0.026-0.028-0.041-0.042
	c-0.015-0.015-0.029-0.03-0.047-0.044c-0.009-0.007-0.016-0.013-0.023-0.02c-0.015-0.013-0.029-0.025-0.044-0.037
	c-0.018-0.015-0.036-0.028-0.055-0.042c-0.008-0.006-0.016-0.012-0.025-0.018c-0.015-0.01-0.03-0.021-0.046-0.032
	c-0.018-0.011-0.037-0.023-0.057-0.034c-0.012-0.007-0.021-0.013-0.033-0.019c-0.015-0.008-0.03-0.017-0.046-0.025
	c-0.017-0.009-0.037-0.02-0.056-0.028c-0.014-0.007-0.029-0.012-0.043-0.019c-0.014-0.007-0.028-0.013-0.043-0.018
	c-0.019-0.007-0.037-0.016-0.056-0.021c-0.017-0.007-0.036-0.012-0.054-0.018c-0.008-0.003-0.017-0.006-0.023-0.008l-5.865-1.765
	c-0.06-0.026-0.121-0.05-0.185-0.069c-0.848-0.255-1.739,0.225-1.993,1.07c-0.25,0.834,0.213,1.711,1.036,1.98l-0.005,0.015
	l2.981,0.897l-0.85,0.611l-5.53,0.482c-0.054,0.001-0.109,0.006-0.165,0.014c-0.875,0.123-1.485,0.931-1.362,1.806
	c0.109,0.785,0.771,1.356,1.54,1.375v0.001l0.016,0c0.082,0,0.165-0.002,0.25-0.014c0.026-0.004,0.051-0.009,0.075-0.015
	l3.137-0.269l-1.253,2.889c-0.013,0.022-0.026,0.044-0.037,0.067c-0.039,0.077-0.067,0.154-0.093,0.233l-0.006,0.015l0.002,0.001
	c-0.226,0.734,0.104,1.543,0.813,1.897c0.791,0.395,1.752,0.074,2.146-0.717c0.024-0.05,0.048-0.102,0.065-0.153l2.145-4.924
	l0.976-0.702l-0.098,3.113h0.017c-0.008,0.866,0.676,1.584,1.546,1.612c0.884,0.027,1.622-0.666,1.649-1.548
	c0.003-0.068,0-0.133-0.006-0.199l0.19-6.121C42.397,12.724,42.396,12.716,42.396,12.708z"/>
<path fill="#38A7DF" d="M45.768,24.967c0.009-0.014,0.018-0.028,0.027-0.042c0.007-0.015,0.017-0.029,0.024-0.044
	c0.009-0.016,0.019-0.034,0.028-0.051c0.007-0.016,0.015-0.032,0.022-0.049c0.007-0.012,0.013-0.023,0.017-0.036
	c0.01-0.019,0.017-0.038,0.023-0.056c0.008-0.019,0.016-0.038,0.022-0.056c0.003-0.011,0.007-0.021,0.01-0.031
	c0.007-0.02,0.013-0.04,0.02-0.061c0.005-0.02,0.01-0.039,0.015-0.06c0.004-0.009,0.005-0.02,0.008-0.029
	c0.005-0.021,0.009-0.041,0.013-0.063c0.003-0.02,0.008-0.039,0.009-0.058c0.004-0.012,0.005-0.024,0.007-0.036
	c0.001-0.021,0.003-0.04,0.006-0.061c0.002-0.019,0.002-0.037,0.004-0.054c0-0.015,0-0.031,0-0.046c0-0.01,0.002-0.02,0.002-0.03
	c0-0.009-0.002-0.02-0.002-0.029c0-0.016,0-0.03,0-0.046c0-0.018-0.002-0.035-0.002-0.053c-0.003-0.021-0.005-0.042-0.007-0.063
	c-0.001-0.011-0.003-0.023-0.004-0.034c-0.004-0.019-0.007-0.038-0.01-0.057c-0.003-0.022-0.007-0.044-0.012-0.065
	c-0.002-0.009-0.005-0.019-0.007-0.028c-0.006-0.02-0.011-0.039-0.015-0.057c-0.007-0.022-0.013-0.043-0.02-0.065
	c-0.003-0.009-0.008-0.019-0.01-0.028c-0.007-0.018-0.013-0.037-0.02-0.054c-0.008-0.021-0.015-0.042-0.024-0.061
	c-0.005-0.012-0.011-0.023-0.015-0.035c-0.009-0.016-0.017-0.031-0.024-0.047c-0.009-0.018-0.019-0.038-0.028-0.056
	c-0.007-0.014-0.016-0.027-0.024-0.042c-0.007-0.014-0.015-0.026-0.024-0.039c-0.01-0.017-0.02-0.034-0.032-0.051
	c-0.01-0.016-0.021-0.03-0.033-0.045c-0.005-0.007-0.008-0.014-0.015-0.02l-3.705-4.875c-0.034-0.056-0.07-0.112-0.11-0.166
	c-0.535-0.703-1.538-0.839-2.241-0.304c-0.693,0.527-0.836,1.509-0.326,2.21l-0.012,0.009l1.885,2.479l-1.047-0.006l-4.757-2.861
	c-0.047-0.03-0.093-0.06-0.143-0.085c-0.78-0.416-1.75-0.12-2.165,0.66c-0.372,0.7-0.171,1.551,0.437,2.017v0.001l0.015,0.009
	c0.066,0.049,0.134,0.096,0.209,0.136c0.024,0.012,0.047,0.022,0.07,0.033l2.695,1.626l-2.71,1.601
	c-0.024,0.011-0.048,0.021-0.07,0.032c-0.075,0.039-0.146,0.085-0.211,0.135l-0.015,0.008l0,0c-0.612,0.463-0.821,1.311-0.455,2.015
	c0.408,0.783,1.373,1.089,2.157,0.681c0.05-0.026,0.098-0.054,0.144-0.085l4.627-2.724l1.204,0.006l-1.909,2.46l0.013,0.011
	c-0.516,0.695-0.385,1.679,0.304,2.213c0.699,0.541,1.703,0.414,2.244-0.283c0.041-0.053,0.078-0.107,0.11-0.164l3.753-4.839
	c0.007-0.008,0.01-0.015,0.017-0.021c0.011-0.016,0.022-0.031,0.035-0.048C45.748,24.997,45.758,24.981,45.768,24.967z"/>
<path fill="#38A7DF" d="M42.011,36.306c0.01-0.018,0.021-0.034,0.032-0.054c0.005-0.01,0.01-0.02,0.015-0.03
	c0.012-0.018,0.019-0.034,0.028-0.053c0.009-0.02,0.019-0.038,0.027-0.06c0.005-0.008,0.008-0.018,0.011-0.027
	c0.009-0.018,0.016-0.035,0.021-0.055c0.009-0.021,0.017-0.042,0.023-0.063c0.003-0.011,0.006-0.02,0.01-0.029
	c0.005-0.019,0.01-0.036,0.015-0.055c0.005-0.021,0.012-0.042,0.018-0.063c0.002-0.013,0.003-0.024,0.006-0.037
	c0.003-0.017,0.006-0.034,0.009-0.051c0.004-0.021,0.009-0.041,0.01-0.063c0.003-0.015,0.003-0.031,0.005-0.046
	c0.002-0.016,0.003-0.031,0.004-0.046c0-0.021,0.003-0.04,0.003-0.06c0-0.021,0-0.038,0-0.058c0-0.009,0-0.017,0-0.024l-0.134-6.123
	c0.007-0.065,0.011-0.131,0.01-0.197c-0.02-0.884-0.751-1.585-1.635-1.565c-0.87,0.02-1.563,0.731-1.563,1.597l-0.015,0.001
	l0.067,3.113l-0.845-0.621l-2.165-5.109c-0.02-0.052-0.041-0.103-0.065-0.154c-0.387-0.793-1.346-1.123-2.139-0.736
	c-0.713,0.347-1.051,1.153-0.833,1.889l-0.002,0.001l0.007,0.015c0.024,0.079,0.052,0.157,0.091,0.233
	c0.011,0.023,0.024,0.046,0.037,0.067l1.224,2.9l-3.134-0.298c-0.024-0.006-0.049-0.013-0.076-0.016
	c-0.083-0.013-0.167-0.017-0.25-0.016l-0.015-0.002v0.002c-0.768,0.014-1.436,0.576-1.553,1.359
	c-0.131,0.875,0.472,1.689,1.346,1.819c0.056,0.009,0.109,0.015,0.165,0.017l5.345,0.517l0.971,0.712l-2.991,0.868l0.005,0.015
	c-0.826,0.261-1.299,1.134-1.055,1.97c0.246,0.849,1.135,1.337,1.98,1.09c0.065-0.018,0.127-0.041,0.188-0.067l5.882-1.709
	c0.007-0.001,0.015-0.005,0.022-0.008c0.019-0.005,0.038-0.011,0.058-0.018c0.017-0.005,0.032-0.013,0.049-0.02
	c0.016-0.006,0.031-0.011,0.046-0.018c0.017-0.007,0.031-0.014,0.047-0.02c0.017-0.008,0.033-0.018,0.051-0.026
	c0.017-0.008,0.033-0.017,0.05-0.025c0.011-0.006,0.022-0.012,0.035-0.019c0.017-0.011,0.034-0.021,0.051-0.033
	c0.017-0.009,0.034-0.021,0.05-0.032c0.009-0.006,0.019-0.011,0.027-0.018c0.018-0.013,0.034-0.026,0.051-0.039
	c0.016-0.012,0.031-0.025,0.047-0.038c0.007-0.006,0.015-0.014,0.022-0.02c0.017-0.015,0.033-0.029,0.048-0.044
	c0.015-0.014,0.028-0.026,0.042-0.041c0.007-0.008,0.017-0.017,0.024-0.026c0.014-0.014,0.028-0.03,0.042-0.045
	c0.013-0.014,0.023-0.028,0.034-0.041s0.018-0.025,0.027-0.036c0.007-0.009,0.015-0.016,0.02-0.023
	c0.007-0.008,0.012-0.017,0.018-0.024c0.008-0.013,0.017-0.026,0.024-0.038C41.992,36.336,42.001,36.322,42.011,36.306z"/>
<path fill="#38A7DF" d="M35.438,35.943c-0.717-0.497-1.694-0.327-2.204,0.374l-0.012-0.01l-1.774,2.56l-0.319-0.998l1.251-5.407
	c0.016-0.054,0.028-0.107,0.038-0.163c0.153-0.869-0.427-1.7-1.297-1.854c-0.78-0.139-1.526,0.316-1.783,1.039h-0.002l-0.004,0.015
	c-0.026,0.078-0.05,0.159-0.063,0.243c-0.005,0.024-0.007,0.05-0.011,0.076l-0.713,3.065L26.183,32.8
	c-0.017-0.019-0.033-0.038-0.053-0.056c-0.06-0.061-0.124-0.112-0.192-0.16l-0.01-0.011l-0.002,0.002
	c-0.628-0.44-1.5-0.378-2.057,0.188c-0.619,0.631-0.609,1.643,0.02,2.262c0.04,0.04,0.082,0.076,0.125,0.11l4.019,3.56l0.368,1.146
	l-2.93-1.055L25.466,38.8c-0.823-0.275-1.717,0.155-2.012,0.975c-0.299,0.83,0.132,1.747,0.963,2.046
	c0.063,0.023,0.126,0.04,0.191,0.055l5.762,2.074c0.008,0.004,0.017,0.005,0.024,0.008c0.019,0.007,0.037,0.014,0.058,0.019
	c0.017,0.006,0.034,0.01,0.051,0.015c0.016,0.004,0.03,0.009,0.047,0.012c0.017,0.004,0.033,0.008,0.051,0.011
	c0.018,0.004,0.036,0.008,0.055,0.011c0.019,0.002,0.037,0.006,0.056,0.007c0.012,0.002,0.024,0.004,0.038,0.006
	c0.021,0.002,0.041,0.003,0.061,0.004c0.02,0.002,0.04,0.003,0.061,0.003c0.011,0.001,0.021,0.001,0.032,0.002
	c0.021,0,0.041-0.001,0.063-0.002c0.02-0.001,0.04-0.002,0.06-0.004c0.011-0.001,0.022-0.001,0.031-0.002
	c0.021-0.002,0.043-0.004,0.064-0.007c0.019-0.002,0.039-0.005,0.058-0.009c0.013-0.002,0.024-0.004,0.035-0.006
	c0.021-0.004,0.04-0.009,0.061-0.014c0.019-0.003,0.035-0.008,0.053-0.013c0.015-0.004,0.029-0.009,0.044-0.013
	c0.01-0.003,0.019-0.004,0.028-0.007c0.011-0.004,0.02-0.008,0.029-0.012c0.014-0.005,0.027-0.01,0.042-0.014
	c0.017-0.007,0.033-0.014,0.051-0.021s0.038-0.016,0.057-0.024c0.011-0.005,0.021-0.009,0.032-0.014
	c0.018-0.009,0.034-0.019,0.051-0.027c0.021-0.01,0.038-0.021,0.06-0.031c0.007-0.005,0.015-0.011,0.024-0.017
	c0.017-0.009,0.033-0.021,0.049-0.031c0.019-0.012,0.037-0.024,0.056-0.037c0.01-0.007,0.017-0.013,0.024-0.02
	c0.016-0.011,0.031-0.022,0.045-0.034c0.018-0.014,0.034-0.027,0.052-0.043c0.008-0.007,0.018-0.017,0.027-0.025
	c0.012-0.011,0.024-0.023,0.036-0.036c0.017-0.015,0.031-0.029,0.046-0.044c0.01-0.012,0.02-0.023,0.03-0.036
	c0.011-0.011,0.021-0.023,0.031-0.035c0.012-0.015,0.024-0.03,0.036-0.046c0.013-0.014,0.023-0.031,0.034-0.046
	c0.005-0.007,0.01-0.013,0.016-0.019l3.49-5.033c0.043-0.049,0.085-0.1,0.123-0.154C36.343,37.443,36.163,36.446,35.438,35.943z"/>
<path fill="#38A7DF" d="M24.413,38.773l-0.004-0.014l-2.939,1.026l0.328-0.995l4.191-3.639c0.043-0.034,0.084-0.07,0.125-0.109
	c0.638-0.613,0.655-1.625,0.042-2.262c-0.551-0.57-1.421-0.643-2.055-0.208v-0.001l-0.012,0.011
	c-0.068,0.047-0.133,0.099-0.195,0.157c-0.018,0.018-0.035,0.038-0.052,0.056l-2.381,2.062l-0.683-3.073
	c-0.003-0.025-0.004-0.05-0.009-0.076c-0.014-0.083-0.037-0.164-0.063-0.243l-0.002-0.016l-0.001,0.001
	c-0.25-0.726-0.992-1.188-1.775-1.056c-0.871,0.146-1.459,0.97-1.314,1.841c0.01,0.056,0.021,0.109,0.037,0.163l1.16,5.243
	l-0.377,1.142l-1.75-2.575l-0.012,0.009c-0.503-0.706-1.479-0.885-2.2-0.395c-0.73,0.495-0.92,1.491-0.424,2.221
	c0.038,0.056,0.08,0.108,0.123,0.156l3.442,5.066c0.004,0.007,0.009,0.013,0.014,0.02c0.012,0.017,0.023,0.033,0.035,0.049
	c0.01,0.015,0.022,0.027,0.034,0.041c0.01,0.013,0.021,0.025,0.032,0.039c0.011,0.012,0.021,0.024,0.033,0.037
	c0.013,0.015,0.026,0.027,0.04,0.041c0.013,0.013,0.026,0.025,0.04,0.038c0.01,0.009,0.019,0.019,0.028,0.027
	c0.016,0.014,0.031,0.026,0.047,0.04c0.015,0.013,0.03,0.024,0.046,0.037c0.008,0.006,0.017,0.013,0.025,0.02
	c0.017,0.012,0.035,0.024,0.052,0.037c0.017,0.01,0.034,0.021,0.051,0.032c0.009,0.005,0.018,0.011,0.026,0.017
	c0.018,0.01,0.037,0.021,0.056,0.031c0.017,0.008,0.034,0.019,0.052,0.027c0.01,0.006,0.021,0.01,0.032,0.015
	c0.018,0.009,0.038,0.018,0.056,0.025c0.017,0.007,0.033,0.014,0.05,0.021c0.014,0.004,0.028,0.009,0.043,0.015
	c0.009,0.003,0.019,0.008,0.028,0.011c0.01,0.004,0.019,0.004,0.029,0.008c0.014,0.005,0.029,0.009,0.043,0.013
	c0.017,0.005,0.034,0.009,0.052,0.013c0.021,0.006,0.041,0.011,0.062,0.015c0.011,0.003,0.023,0.005,0.034,0.007
	c0.019,0.004,0.038,0.006,0.057,0.008c0.022,0.004,0.044,0.007,0.066,0.009c0.01,0.002,0.02,0.002,0.029,0.003
	c0.02,0.002,0.039,0.003,0.059,0.004c0.022,0.001,0.045,0.002,0.068,0.002c0.01,0,0.02,0,0.03,0
	c0.019-0.001,0.038-0.002,0.057-0.003c0.021-0.001,0.043-0.001,0.065-0.004c0.012-0.002,0.025-0.003,0.037-0.005
	c0.017-0.002,0.034-0.005,0.052-0.008c0.021-0.001,0.042-0.005,0.063-0.009c0.015-0.003,0.03-0.007,0.046-0.011
	c0.015-0.004,0.03-0.008,0.045-0.011c0.019-0.005,0.038-0.01,0.057-0.015c0.019-0.006,0.036-0.012,0.055-0.018
	c0.007-0.002,0.015-0.005,0.023-0.007l5.783-2.021c0.063-0.013,0.127-0.03,0.19-0.052c0.833-0.292,1.273-1.204,0.983-2.038
	C26.127,38.944,25.237,38.508,24.413,38.773z"/>
<path fill="#38A7DF" d="M20.764,31.752c-0.109-0.785-0.772-1.354-1.539-1.375v-0.002l-0.016,0.002c-0.083-0.002-0.166,0-0.25,0.014
	c-0.025,0.003-0.05,0.01-0.076,0.014l-3.137,0.27l1.252-2.889c0.013-0.023,0.026-0.044,0.038-0.068
	c0.039-0.075,0.068-0.154,0.093-0.232l0.006-0.015l-0.001-0.001c0.224-0.733-0.105-1.544-0.814-1.896
	c-0.791-0.396-1.751-0.073-2.146,0.717c-0.025,0.051-0.047,0.102-0.066,0.153l-2.143,4.924l-0.977,0.702l0.098-3.112l-0.016-0.001
	c0.007-0.866-0.677-1.584-1.548-1.611c-0.882-0.027-1.621,0.665-1.649,1.548c-0.002,0.067,0.001,0.133,0.008,0.197l-0.193,6.123
	c0,0.007,0,0.016,0,0.023c0,0.021-0.001,0.04,0,0.061c0,0.018,0.001,0.035,0.002,0.054c0.001,0.016,0.002,0.033,0.003,0.049
	s0.002,0.033,0.004,0.05c0.002,0.02,0.005,0.038,0.008,0.057c0.003,0.018,0.006,0.036,0.01,0.055
	c0.002,0.014,0.004,0.025,0.007,0.039c0.004,0.02,0.01,0.039,0.015,0.06c0.005,0.019,0.01,0.038,0.016,0.058
	c0.003,0.01,0.005,0.02,0.009,0.03c0.006,0.021,0.013,0.039,0.021,0.06c0.006,0.02,0.014,0.038,0.021,0.057
	c0.004,0.01,0.008,0.021,0.011,0.028c0.009,0.021,0.018,0.039,0.027,0.059c0.009,0.018,0.017,0.035,0.027,0.052
	c0.005,0.012,0.011,0.022,0.016,0.033c0.01,0.018,0.021,0.035,0.031,0.052c0.009,0.017,0.019,0.031,0.029,0.047
	c0.008,0.013,0.017,0.025,0.025,0.037c0.006,0.009,0.011,0.018,0.016,0.025c0.006,0.008,0.013,0.017,0.019,0.024
	c0.009,0.012,0.018,0.024,0.027,0.035c0.011,0.015,0.022,0.028,0.034,0.042c0.014,0.016,0.027,0.032,0.041,0.047
	c0.009,0.009,0.017,0.018,0.025,0.025c0.013,0.015,0.027,0.027,0.041,0.042c0.016,0.015,0.031,0.029,0.047,0.045
	c0.007,0.006,0.015,0.013,0.023,0.019c0.015,0.013,0.03,0.025,0.045,0.037c0.017,0.015,0.035,0.029,0.053,0.043
	c0.008,0.004,0.017,0.01,0.025,0.017c0.016,0.011,0.032,0.021,0.047,0.031c0.019,0.012,0.037,0.023,0.056,0.036
	c0.011,0.005,0.021,0.011,0.032,0.018c0.015,0.009,0.031,0.016,0.046,0.024c0.019,0.01,0.037,0.02,0.056,0.029
	c0.015,0.006,0.03,0.013,0.044,0.018c0.014,0.007,0.028,0.013,0.043,0.019c0.018,0.008,0.037,0.015,0.055,0.021
	c0.018,0.007,0.036,0.012,0.055,0.018c0.007,0.002,0.015,0.006,0.022,0.008l5.865,1.766c0.06,0.025,0.121,0.05,0.186,0.069
	c0.845,0.254,1.738-0.225,1.992-1.071c0.251-0.833-0.212-1.711-1.036-1.979l0.004-0.016l-2.981-0.896l0.851-0.611l5.529-0.481
	c0.055-0.002,0.11-0.007,0.166-0.014C20.277,33.436,20.887,32.627,20.764,31.752z"/>
<path fill="#38A7DF" d="M16.572,25.733L16.572,25.733l-0.013-0.009c-0.066-0.05-0.135-0.097-0.21-0.138
	c-0.023-0.011-0.046-0.021-0.07-0.031l-2.696-1.627l2.712-1.6c0.023-0.011,0.046-0.021,0.07-0.033
	c0.075-0.039,0.145-0.085,0.211-0.134l0.013-0.008l0-0.001c0.613-0.461,0.822-1.31,0.457-2.014c-0.408-0.784-1.374-1.088-2.158-0.68
	c-0.049,0.026-0.098,0.054-0.144,0.084l-4.628,2.724l-1.203-0.005l1.909-2.46l-0.012-0.01c0.516-0.697,0.384-1.68-0.305-2.213
	c-0.698-0.542-1.702-0.415-2.244,0.283c-0.042,0.052-0.078,0.108-0.111,0.164l-3.754,4.839c-0.005,0.007-0.009,0.014-0.014,0.02
	c-0.012,0.016-0.024,0.033-0.036,0.049c-0.01,0.015-0.019,0.029-0.029,0.045c-0.008,0.014-0.017,0.028-0.026,0.042
	c-0.009,0.015-0.018,0.028-0.026,0.043c-0.009,0.016-0.018,0.033-0.026,0.05s-0.017,0.033-0.025,0.05
	c-0.005,0.012-0.011,0.023-0.017,0.036c-0.008,0.019-0.015,0.038-0.022,0.057c-0.007,0.018-0.015,0.037-0.021,0.055
	c-0.003,0.01-0.007,0.021-0.011,0.031c-0.007,0.02-0.012,0.04-0.018,0.061c-0.005,0.02-0.011,0.039-0.016,0.059
	c-0.002,0.01-0.005,0.021-0.007,0.029c-0.005,0.021-0.008,0.042-0.012,0.063c-0.004,0.02-0.007,0.039-0.01,0.058
	c-0.002,0.012-0.003,0.024-0.005,0.036c-0.003,0.02-0.005,0.041-0.006,0.061c-0.002,0.019-0.003,0.037-0.004,0.055
	c0,0.015-0.001,0.03-0.002,0.044c0,0.011-0.001,0.021-0.001,0.03c0,0.011,0.001,0.021,0.001,0.03c0,0.016,0,0.031,0.001,0.045
	c0,0.018,0.001,0.036,0.002,0.054c0.002,0.021,0.004,0.042,0.006,0.062c0.001,0.013,0.003,0.023,0.004,0.036
	c0.002,0.019,0.006,0.038,0.009,0.057c0.004,0.021,0.008,0.043,0.012,0.064c0.002,0.01,0.005,0.02,0.007,0.029
	c0.004,0.02,0.01,0.038,0.015,0.058c0.006,0.021,0.012,0.042,0.019,0.064c0.003,0.009,0.007,0.02,0.011,0.028
	c0.006,0.019,0.013,0.035,0.019,0.054c0.008,0.021,0.016,0.041,0.024,0.062c0.005,0.012,0.011,0.022,0.016,0.033
	c0.008,0.016,0.015,0.032,0.023,0.048c0.009,0.019,0.018,0.037,0.028,0.056c0.008,0.014,0.016,0.027,0.024,0.04
	c0.008,0.014,0.016,0.027,0.024,0.04c0.011,0.017,0.021,0.034,0.032,0.05c0.01,0.016,0.022,0.03,0.033,0.046
	c0.005,0.008,0.009,0.014,0.014,0.021l3.708,4.875c0.033,0.057,0.068,0.111,0.109,0.166c0.535,0.702,1.539,0.839,2.242,0.304
	c0.693-0.527,0.834-1.509,0.326-2.211l0.012-0.008L8.898,25.46l1.048,0.005l4.755,2.861c0.046,0.031,0.094,0.06,0.143,0.086
	c0.78,0.415,1.749,0.119,2.164-0.66C17.381,27.052,17.18,26.201,16.572,25.733z"/>
<path fill="#38A7DF" d="M19.481,14.352c-0.056-0.008-0.111-0.013-0.166-0.016l-5.345-0.517L13,13.107l2.991-0.869l-0.004-0.015
	c0.826-0.261,1.297-1.134,1.055-1.97c-0.247-0.848-1.134-1.336-1.982-1.09c-0.064,0.019-0.126,0.042-0.186,0.069L8.991,10.94
	c-0.008,0.002-0.015,0.005-0.023,0.007c-0.02,0.006-0.039,0.012-0.058,0.018c-0.017,0.006-0.033,0.013-0.049,0.02
	c-0.016,0.006-0.031,0.012-0.046,0.018c-0.016,0.006-0.031,0.012-0.046,0.02c-0.017,0.007-0.034,0.017-0.052,0.025
	c-0.017,0.008-0.032,0.017-0.049,0.026c-0.011,0.006-0.023,0.012-0.034,0.019c-0.018,0.01-0.035,0.021-0.052,0.032
	c-0.017,0.011-0.034,0.021-0.05,0.032c-0.009,0.006-0.018,0.011-0.027,0.019c-0.017,0.012-0.034,0.025-0.05,0.039
	c-0.016,0.012-0.032,0.024-0.047,0.038C8.4,11.26,8.392,11.266,8.384,11.273c-0.016,0.014-0.031,0.028-0.047,0.043
	c-0.015,0.014-0.029,0.027-0.042,0.041c-0.008,0.009-0.017,0.018-0.025,0.026c-0.014,0.015-0.027,0.03-0.041,0.046
	c-0.012,0.013-0.023,0.027-0.035,0.041c-0.01,0.012-0.019,0.024-0.028,0.036c-0.006,0.008-0.013,0.015-0.019,0.023
	c-0.006,0.008-0.011,0.017-0.017,0.025c-0.009,0.012-0.017,0.024-0.025,0.037c-0.01,0.015-0.02,0.03-0.029,0.046
	c-0.01,0.018-0.022,0.035-0.032,0.054c-0.006,0.01-0.011,0.021-0.017,0.03c-0.009,0.018-0.018,0.034-0.026,0.052
	c-0.009,0.02-0.019,0.04-0.028,0.06c-0.004,0.008-0.007,0.018-0.011,0.027c-0.007,0.019-0.015,0.036-0.021,0.055
	c-0.008,0.021-0.016,0.042-0.023,0.063c-0.004,0.01-0.006,0.019-0.009,0.029c-0.006,0.018-0.011,0.037-0.016,0.055
	c-0.006,0.021-0.011,0.042-0.016,0.063c-0.003,0.012-0.005,0.024-0.007,0.037c-0.003,0.017-0.006,0.034-0.009,0.052
	c-0.003,0.02-0.007,0.042-0.01,0.062c-0.002,0.016-0.003,0.032-0.004,0.048c-0.002,0.016-0.002,0.031-0.003,0.046
	c-0.001,0.019-0.003,0.04-0.003,0.058c-0.001,0.02,0,0.039,0,0.058c0,0.008-0.001,0.016-0.001,0.024l0.134,6.123
	c-0.006,0.065-0.011,0.131-0.009,0.199c0.02,0.883,0.751,1.583,1.634,1.563c0.871-0.019,1.562-0.731,1.563-1.597l0.015,0
	l-0.068-3.112l0.845,0.62l2.166,5.109c0.02,0.052,0.041,0.104,0.065,0.154c0.387,0.794,1.344,1.125,2.138,0.738
	c0.713-0.347,1.05-1.153,0.833-1.889l0.001,0l-0.006-0.015c-0.024-0.079-0.053-0.157-0.09-0.234
	c-0.011-0.023-0.024-0.045-0.037-0.067l-1.225-2.901l3.134,0.299c0.025,0.005,0.05,0.011,0.076,0.015
	c0.084,0.013,0.167,0.017,0.25,0.017l0.016,0.001l0-0.001c0.767-0.014,1.435-0.577,1.553-1.362
	C20.956,15.296,20.354,14.482,19.481,14.352z"/>
<path fill="#FFFFFF" d="M32.59,23.935c0,4.194-3.312,7.529-7.505,7.529c-4.17,0-7.53-3.335-7.53-7.529
	c0-4.147,3.359-7.483,7.53-7.483C29.278,16.452,32.59,19.788,32.59,23.935z M21.448,25.858c-0.093-0.579-0.14-1.229-0.14-1.854
	c0-0.464,0.023-0.834,0.07-1.275c-1.066-0.208-1.692-0.37-2.179-0.579c-0.162,0.556-0.254,1.181-0.254,1.784
	c0,0.301,0,0.602,0.046,0.857C19.292,25.14,20.058,25.604,21.448,25.858z M22.722,29.589c-0.534-0.742-0.881-1.692-1.112-2.804
	c-0.927-0.209-1.761-0.464-2.317-0.765c0.348,0.856,0.789,1.621,1.459,2.247C21.308,28.87,22.003,29.286,22.722,29.589z
	 M19.547,21.34c0.208,0.186,0.557,0.209,1.924,0.579c0.254-1.483,0.694-2.711,1.39-3.637c-0.788,0.371-1.482,0.695-2.109,1.367
	C20.22,20.136,19.825,20.739,19.547,21.34z M22.281,26.021c0.788,0.139,1.552,0.209,2.34,0.231v-3.266
	c-0.834-0.023-1.667-0.069-2.456-0.162c0,0.417-0.023,0.765-0.023,1.181C22.143,24.677,22.188,25.395,22.281,26.021z M22.281,22.035
	c0.765,0.069,1.552,0.116,2.34,0.14v-4.31c0,0-0.023,0-0.046,0C23.532,18.282,22.653,19.904,22.281,22.035z M24.622,30.052v-2.988
	c-0.719-0.023-1.437-0.07-2.132-0.14c0.141,0.603,0.349,1.135,0.626,1.622C23.463,29.38,23.997,30.052,24.622,30.052z
	 M25.501,17.865v4.31c0.812-0.023,1.575-0.07,2.363-0.14c-0.301-1.668-0.973-3.127-1.76-3.845
	C25.896,18.051,25.665,17.865,25.501,17.865z M27.842,26.044c0.115-0.625,0.139-1.344,0.139-2.039c0-0.417,0-0.765-0.023-1.159
	c-0.787,0.07-1.599,0.117-2.456,0.14v3.266C26.313,26.229,27.076,26.159,27.842,26.044z M27.657,26.924
	c-0.72,0.069-1.438,0.116-2.156,0.14v2.988C26.706,30.052,27.356,27.966,27.657,26.924z M27.286,18.259
	c0.694,0.903,1.134,2.177,1.367,3.683c1.249-0.231,1.76-0.439,1.946-0.579C29.949,19.927,28.723,18.769,27.286,18.259z
	 M30.784,26.113c-0.602,0.277-1.39,0.51-2.247,0.695c-0.256,1.111-0.58,2.015-1.135,2.78c0.717-0.303,1.437-0.719,1.992-1.321
	C30.043,27.665,30.483,26.924,30.784,26.113z M28.814,24.005c0,0.625-0.046,1.298-0.115,1.876c2.408-0.394,2.501-0.95,2.501-1.946
	c0-0.579-0.093-1.205-0.277-1.76c-0.439,0.186-1.229,0.463-2.154,0.555C28.814,23.171,28.814,23.541,28.814,24.005z"/>
</svg>
